# xmcd
#
# Track frame offsets:
# 182
# 19537
# 41687
# 60620
# 78750
# 107100
# 126605
# 146487
# 164400
# 188025
#
# Disc length: 2805 seconds
#
# Revision: 1
# Processed by: cddbd v1.5.1PL0 Copyright (c) Steve Scherf et al.
# Submitted via: CedeCatalogueitor 2.6.0.5 http://personales.ya.com/cdcatalogueitor
#
DISCID=830af30a
DTITLE=LOS ROMEROS DE LA PUEBLA - ROMEROS DE LA PUEBLA 92
DYEAR=1992
DGENRE=Flamenco
TTITLE0=El Cántaro Se Rompio
TTITLE1=Leyenda Del "Cachorro"
TTITLE2=Mírame Rocio
TTITLE3=Sevilla
TTITLE4=Rociero De Verdad
TTITLE5=Rociero Y Buena Gente
TTITLE6=Junto A La Torre Del Oro
TTITLE7=Huelva
TTITLE8=Hermanos
TTITLE9=Bodas De Plata
EXTD=
EXTT0=
EXTT1=
EXTT2=
EXTT3=
EXTT4=
EXTT5=
EXTT6=
EXTT7=
EXTT8=
EXTT9=
PLAYORDER=
